<svg id="Layer_1" data-name="Layer 1" xmlns="http://www.w3.org/2000/svg" viewBox="0 0 400.055 351.583"><defs><style>.cls-1{fill:#739e77;opacity:0.5;}.cls-2{fill:#2c2c2c;}.cls-3{fill:#999;}.cls-4{fill:#fff;}.cls-5{fill:#df3f33;}.cls-6{fill:#f7605c;}.cls-7{fill:#212121;}.cls-8{fill:#f4927f;}.cls-9{fill:#ffad97;}.cls-10{fill:#b2b2b2;}.cls-11{fill:#443475;}.cls-12{fill:#53468c;}.cls-13{fill:#3f3f3f;}.cls-14{fill:#ff8383;}.cls-15{fill:#296bd9;}.cls-16{fill:#3f87ff;}.cls-17{fill:#d8d8d8;}.cls-18{fill:#f4f4f4;}.cls-19{fill:#b5b5b5;}.cls-20{fill:#94baf2;}.cls-21{fill:#c8dcff;}.cls-22{fill:#565656;}</style></defs><path class="cls-1" d="M329.469,294.55,143.228,187.384,58.924,234.5,98.1,257.039C59.4,260.3,29.816,278.127,29.816,299.63c0,23.821,36.3,43.131,81.085,43.131,38.231,0,70.261-14.078,78.821-33.016l55.418,31.879Z" transform="translate(-29.816 -47.288)"/><polygon class="cls-1" points="400.055 291.962 327.221 249.31 226.016 308.962 298.866 351.583 400.055 291.962"/><path class="cls-2" d="M263.8,124.681s-.528,21.378-.528,26.187.669,14.862-7.794,18.435-20.447,8.249-20.447,8.249l11.349,7.306s11.446-4.979,17.329-8.606c8.275-5.1,7.409-19.04,7.409-27.9a191.087,191.087,0,0,0-1.511-20.405Z" transform="translate(-29.816 -47.288)"/><path class="cls-2" d="M235.026,224.048h0a4.543,4.543,0,0,1-4.53-4.53v-41.8a4.544,4.544,0,0,1,4.53-4.53h0a4.544,4.544,0,0,1,4.531,4.53v41.8A4.544,4.544,0,0,1,235.026,224.048Z" transform="translate(-29.816 -47.288)"/><path class="cls-3" d="M263.688,179.718c0,8.419-12.832,15.245-28.662,15.245s-28.66-6.826-28.66-15.245,12.831-15.246,28.66-15.246S263.688,171.3,263.688,179.718Z" transform="translate(-29.816 -47.288)"/><rect class="cls-3" x="176.55" y="129.554" width="57.322" height="3.318"/><ellipse class="cls-4" cx="205.21" cy="129.554" rx="28.661" ry="15.246"/><path class="cls-5" d="M262.334,175.187c0,8.023-12.226,14.526-27.308,14.526s-27.307-6.5-27.307-14.526,12.226-14.525,27.307-14.525S262.334,167.165,262.334,175.187Z" transform="translate(-29.816 -47.288)"/><polygon class="cls-5" points="179.351 118.569 177.903 127.899 232.518 127.899 231.067 118.569 179.351 118.569"/><path class="cls-6" d="M261.262,168.161c0,7.708-11.746,13.956-26.236,13.956s-26.235-6.248-26.235-13.956,11.746-13.955,26.235-13.955S261.262,160.454,261.262,168.161Z" transform="translate(-29.816 -47.288)"/><path class="cls-5" d="M290.454,158.74V127.382c0-10.98-6.738-23.853-14.972-28.607l-7.815-4.512c-8.234-4.753-14.971.339-14.971,11.319V136.94Z" transform="translate(-29.816 -47.288)"/><polygon class="cls-5" points="227.905 46.313 221.508 50.114 227.23 53.915 227.905 46.313"/><polygon class="cls-5" points="254.405 115.154 260.638 111.452 253.265 104.194 254.405 115.154"/><path class="cls-6" d="M284.221,162.442V131.084c0-10.98-6.738-23.852-14.972-28.606l-7.814-4.512c-8.235-4.754-14.973.339-14.973,11.318v31.358Z" transform="translate(-29.816 -47.288)"/><path class="cls-2" d="M208.157,245.605c0,2.809-1.708,6.073-3.815,7.289s-3.815-.075-3.815-2.884,1.708-6.073,3.815-7.289S208.157,242.8,208.157,245.605Z" transform="translate(-29.816 -47.288)"/><polygon class="cls-2" points="179.784 196.869 176.84 195.141 172.04 205.812 175.105 207.58 179.784 196.869"/><path class="cls-7" d="M211.24,247.386c0,2.809-1.708,6.073-3.815,7.289s-3.815-.074-3.815-2.884,1.708-6.073,3.815-7.289S211.24,244.577,211.24,247.386Z" transform="translate(-29.816 -47.288)"/><path class="cls-2" d="M202.138,243.876h0a3.176,3.176,0,0,1,1.163-4.34l60.276-34.789a3.175,3.175,0,0,1,4.338,1.162h0a3.176,3.176,0,0,1-1.163,4.34l-60.275,34.79A3.177,3.177,0,0,1,202.138,243.876Z" transform="translate(-29.816 -47.288)"/><path class="cls-2" d="M263.577,245.039,203.3,210.249a3.176,3.176,0,0,1-1.163-4.34h0a3.176,3.176,0,0,1,4.339-1.162l60.275,34.789a3.176,3.176,0,0,1,1.163,4.34h0A3.176,3.176,0,0,1,263.577,245.039Z" transform="translate(-29.816 -47.288)"/><path class="cls-2" d="M267.253,210.788c0,2.809-1.708,6.073-3.815,7.29s-3.815-.075-3.815-2.885,1.707-6.073,3.815-7.289S267.253,207.979,267.253,210.788Z" transform="translate(-29.816 -47.288)"/><polygon class="cls-2" points="238.88 162.052 235.936 160.324 231.136 170.995 234.201 172.762 238.88 162.052"/><path class="cls-7" d="M270.336,212.569c0,2.81-1.708,6.073-3.815,7.29s-3.815-.075-3.815-2.885,1.708-6.073,3.815-7.289S270.336,209.76,270.336,212.569Z" transform="translate(-29.816 -47.288)"/><path class="cls-2" d="M263.536,246.5c0,2.81-1.709,6.074-3.815,7.29s-3.816-.075-3.816-2.884,1.709-6.073,3.816-7.29S263.536,243.686,263.536,246.5Z" transform="translate(-29.816 -47.288)"/><polygon class="cls-2" points="235.163 197.76 232.219 196.032 227.418 206.703 230.484 208.47 235.163 197.76"/><path class="cls-7" d="M266.619,248.276c0,2.81-1.708,6.074-3.815,7.29s-3.815-.074-3.815-2.884,1.708-6.073,3.815-7.289S266.619,245.467,266.619,248.276Z" transform="translate(-29.816 -47.288)"/><path class="cls-2" d="M205.747,212.771c0,2.809-1.708,6.073-3.815,7.289s-3.815-.075-3.815-2.884,1.708-6.073,3.815-7.29S205.747,209.961,205.747,212.771Z" transform="translate(-29.816 -47.288)"/><polygon class="cls-2" points="177.375 164.035 174.431 162.307 169.63 172.978 172.696 174.745 177.375 164.035"/><path class="cls-7" d="M208.831,214.551c0,2.81-1.708,6.074-3.815,7.29s-3.816-.075-3.816-2.884,1.709-6.073,3.816-7.29S208.831,211.742,208.831,214.551Z" transform="translate(-29.816 -47.288)"/><path class="cls-8" d="M191.188,231.612c-3.175-.111-6.462-.484-9.694-.654.08,1.962.131,3.671.137,4.924.037,7.343-4.465,14.172-6.142,16.824s3.647,6.8,7.692,2.931,6.748-5.836,9.03-7.049,2.108-2.767-.113-11.011A29.112,29.112,0,0,1,191.188,231.612Z" transform="translate(-29.816 -47.288)"/><path class="cls-9" d="M220.227,248.611a25.04,25.04,0,0,1-9.9-.39c.008.489.015.955.017,1.355.037,7.343-4.465,14.172-6.142,16.824s3.647,6.8,7.692,2.931,4.465-4.624,6.748-5.836,5.21-2.754,3.405-8.542C221.805,254.167,220.377,249.587,220.227,248.611Z" transform="translate(-29.816 -47.288)"/><path class="cls-4" d="M180.013,244.085s-3.779,5.385-6.949,8.946c-3.722,4.182-5.308,5.166-6.191,7.454s3.31,7.794,10.571,3.6,8.558-5.375,11.02-7.641c3.191-2.938,6.5-4.892,7-9.112a7.1,7.1,0,0,0-2.376-5.935s-.666,2.51-5.022,4.972C184.792,248.221,180.013,244.085,180.013,244.085Z" transform="translate(-29.816 -47.288)"/><path class="cls-10" d="M166.873,260.485s4.815,2.962,5.433,3.24c4.194,1.891,8.2-2.509,12.2-5.242a23.975,23.975,0,0,0,8-8.387,18.641,18.641,0,0,1,3-4.275s2.394,5.632-.992,7.685c-4.106,2.491-10.781,7.364-12.684,8.5-1.613.966-9.722,7.053-14.3,2.478C166.481,263.429,166.3,262.391,166.873,260.485Z" transform="translate(-29.816 -47.288)"/><path class="cls-10" d="M177.255,247.849a10.045,10.045,0,0,1,3.677,2.723,34.662,34.662,0,0,1,2.335,2.934l-1.478,1.1s-2.5-2.489-3.669-3.764a13.933,13.933,0,0,0-2.1-1.384Z" transform="translate(-29.816 -47.288)"/><path class="cls-10" d="M174.6,251.229a11.042,11.042,0,0,1,3.759,2.822,13.848,13.848,0,0,1,1.821,2.388l-1.308,1.45s-2.157-2.29-3.324-3.566a18.529,18.529,0,0,0-2.245-1.563Z" transform="translate(-29.816 -47.288)"/><path class="cls-4" d="M208.972,257.641s-3.779,5.385-6.949,8.946c-3.722,4.181-5.308,5.166-6.191,7.454s3.31,7.794,10.571,3.6,8.558-5.375,11.02-7.642c3.191-2.936,6.5-4.891,7-9.112a7.092,7.092,0,0,0-2.376-5.934s-.666,2.509-5.022,4.971C213.751,261.777,208.972,257.641,208.972,257.641Z" transform="translate(-29.816 -47.288)"/><path class="cls-10" d="M195.832,274.041s4.815,2.962,5.433,3.24c4.194,1.891,8.2-2.509,12.2-5.242a23.969,23.969,0,0,0,8-8.388,18.647,18.647,0,0,1,3-4.274s2.394,5.632-.991,7.686c-4.106,2.49-10.782,7.363-12.685,8.5-1.612.966-9.721,7.053-14.3,2.478C195.44,276.985,195.26,275.947,195.832,274.041Z" transform="translate(-29.816 -47.288)"/><path class="cls-10" d="M206.214,261.4a10.045,10.045,0,0,1,3.677,2.723,34.568,34.568,0,0,1,2.335,2.935l-1.477,1.1s-2.5-2.488-3.67-3.764a13.938,13.938,0,0,0-2.1-1.383Z" transform="translate(-29.816 -47.288)"/><path class="cls-10" d="M203.559,264.785a11.053,11.053,0,0,1,3.759,2.822A13.922,13.922,0,0,1,209.139,270l-1.309,1.45s-2.157-2.29-3.324-3.566a18.529,18.529,0,0,0-2.245-1.563Z" transform="translate(-29.816 -47.288)"/><path class="cls-11" d="M256.919,154.354s-21.885-15.458-35.042-6.106c-9.983,7.1-28.22,18.254-36.572,24.178-4.331,3.072-9.287,12.4-9.287,21.187,0,5.143,2.473,48.432,2.473,48.432s4.9,2.921,9.868,2.921,7.975-5.706,7.975-5.706.866-32.224,1.468-47.369c4.531-6.312,21.219-14.974,21.219-14.974s-4.575,4.36-11.191,10.089c-4.333,3.752-6.511,10.3-6.251,17,.417,10.7,3.695,50.57,3.695,50.57s4.72,3.049,9.531,3.06,10.937-4.978,10.937-4.978-1.706-27.033-3.041-50.959c1.688-2.214,23.6-15.555,28.308-20.425C264.509,167.3,256.919,154.354,256.919,154.354Z" transform="translate(-29.816 -47.288)"/><path class="cls-11" d="M211.539,84.842c-4.47,2.909-15.806,24.43-18.144,30.362-.536,2.479,4.544.616,5.127,3.11.459,1.962,2.076,5.02,4.24,6.111a105.723,105.723,0,0,0,7.894-11.289l10.122-29.858S216.665,81.506,211.539,84.842Z" transform="translate(-29.816 -47.288)"/><path class="cls-12" d="M248.127,95.363c-1.456-3.59-13.939-9.8-13.939-9.8s-5.649,5.961-7.645,8.032A57.731,57.731,0,0,0,221.4,100.8h-.055A49.056,49.056,0,0,1,222.3,87.96c.433-2.007-1.414-7.443-1.414-7.443s-.922-.1-2.244-.146C217.01,82.785,214,89.012,212.27,91.66c-1.673,2.555-6.4,10.143-5.207,17.79,2.624,16.816,2.293,54.115,1.957,49.7,0,0,16.921,8.44,28.534,10.251,15.61,2.434,20.145-12.955,20.145-12.955s-7.13-26.812-7.7-33.33C250,123.119,252.932,107.219,248.127,95.363Z" transform="translate(-29.816 -47.288)"/><path class="cls-8" d="M220.342,81.472a67.015,67.015,0,0,1-.753,8.725c-.739,1.612-2.248,10.737-1.114,14.721,1.935-1.484,7.16-8.679,8.87-10.834,2.068-2.607,7.747-8.012,7.747-8.012s-2.641-1.806-3.348-6.857c-1.006-7.179-1.882-13.433-1.882-13.433Z" transform="translate(-29.816 -47.288)"/><path class="cls-11" d="M218.1,84.086a114.42,114.42,0,0,0-2.394,14.153,31.756,31.756,0,0,0,1.593,11.368s9.046-9.482,12.021-12.464c4.243-4.251,9.252-9.192,9.252-9.192l-3.48-1.879a64.213,64.213,0,0,0-8.549,7.523c-1.717,1.867-7.388,9.3-7.388,9.3s.592-5.532,1.217-10.529c.545-4.356,1-10.305,1-10.305Z" transform="translate(-29.816 -47.288)"/><polygon class="cls-4" points="205.187 63.436 194.372 60.332 195.15 57.647 205.966 60.752 205.187 63.436"/><polygon class="cls-13" points="211.245 232.259 50.932 139.702 50.932 111.217 211.245 203.774 211.245 232.259"/><polygon class="cls-2" points="273.708 168.748 213.04 203.774 213.04 232.259 273.708 197.232 273.708 168.748"/><polygon class="cls-7" points="52.356 190.378 56.315 188.093 56.315 103.463 52.356 105.749 52.356 190.378"/><polygon class="cls-2" points="52.356 190.378 48.397 188.093 48.397 103.463 52.356 105.749 52.356 190.378"/><polygon class="cls-7" points="213.04 283.693 216.999 281.408 216.999 196.778 213.04 199.064 213.04 283.693"/><polygon class="cls-2" points="213.04 283.693 209.081 281.408 209.081 196.778 213.04 199.064 213.04 283.693"/><polygon class="cls-7" points="272.859 249.37 276.817 247.085 276.817 162.455 272.859 164.741 272.859 249.37"/><polygon class="cls-2" points="272.859 249.37 268.9 247.085 268.9 162.455 272.859 164.741 272.859 249.37"/><polygon class="cls-10" points="213.17 210.201 34.81 106.743 34.81 102.517 213.17 205.975 213.17 210.201"/><polygon class="cls-10" points="213.17 205.975 287.139 163.245 287.139 167.471 213.17 210.201 213.17 205.975"/><polygon class="cls-4" points="34.81 102.517 108.752 59.735 287.139 163.245 213.17 205.975 34.81 102.517"/><path class="cls-9" d="M212.111,152.783s-13.818,3.627-18.592,5.969-7.342,8.4.274,9.548c11.427,1.721,18.548-6.358,19.416-6.784S212.111,152.783,212.111,152.783Z" transform="translate(-29.816 -47.288)"/><path class="cls-11" d="M256.216,133.841c-.115-9.541-.245-18.826-2.59-29.445-1.744-7.9-4.984-10.089-7.821-11.717-2.076-1.192-6.694,3.258-8.5,7.039-2.244,4.694,1.117,28.484,2.253,35.7-12.614,6.776-33.81,14.389-33.81,14.389s-.814,6.668,1.444,9.411a36.464,36.464,0,0,0,7.112,6.523s20.27-7.151,32.159-14.257C255.506,146.556,256.216,139.372,256.216,133.841Z" transform="translate(-29.816 -47.288)"/><path class="cls-7" d="M209.512,60.072a32.8,32.8,0,0,1-4.981,9.51c-2.453,2.982-2.842,4.922-.683,6.652s-.276,4.206-1.412,7.247c-.961,2.573.12,3.756,2.947,5.121s1.972,2.983,1.365,6.037c-.682,3.434,3.668,3.856,3.668,3.856s-2.292-2.408-.482-3.7,3.61-1.932,3.3-4.917c-.341-3.241,3.169-1,5.024-2.543s3.654-6.262,3.654-6.262Z" transform="translate(-29.816 -47.288)"/><path class="cls-9" d="M230.3,56.321c-4.608-3.511-15.525-4.637-19.51,6.643-4.178,11.829,6.526,26.6,12.23,24.093,3.195-1.406,8.666-3.534,10.557-9.762C235.709,70.286,233.884,59.048,230.3,56.321Z" transform="translate(-29.816 -47.288)"/><path class="cls-4" d="M210.771,74.79s4.015,5.124,8.778,5.715c8.478,1.053,15.543-4.069,15.543-4.069s-8.039,14.214-15.251,12.1C211.171,86.005,210.771,74.79,210.771,74.79Z" transform="translate(-29.816 -47.288)"/><path class="cls-7" d="M239.456,62.311c-.825-1.688-.127-6.206-4.974-10a8.9,8.9,0,0,0-4.62-4.393c-4.828-1.876-11.412.811-14.585,3.155-7.033,5.2-7.741,13.414-7.741,17.071,0,0,5.684,2.472,9.691.414,0,2.058,2.674,4.528,3.682,5.2,3.511,2.34,5.784.59,8.271.849,1.619.169,2.383,1.52,2.274,3.593C234.627,74.691,241.9,67.315,239.456,62.311Z" transform="translate(-29.816 -47.288)"/><path class="cls-7" d="M231.454,68.814a55.993,55.993,0,0,1,0,8.481c-.4,3.033-2.1,7.415-1.421,10.043s2.558,3.652,1.791,5.187-2.848,1.123-3.542,3.5c-.723,2.473-.36,4.076,1.06,5.043a4.4,4.4,0,0,0,3.761.842s-1.89-1.845-.938-2.729c1.454-1.352,2.473.6,4.009-.683s.6-3.5,2.9-3.414,3.907.855,5.508,0c2.317-1.237,3.217-2.641,2.973-5.456-.14-1.615-1.146-1.517-1.4-3.7s3.009-2.1,2.217-5.937c-.663-3.218-2.989-2.2-3.576-4.5s1.529-2.185,1.444-4.87c-.108-3.411-2.752-2.667-4.436-5.384a38.379,38.379,0,0,1-3.275-6.251Z" transform="translate(-29.816 -47.288)"/><path class="cls-3" d="M93.009,224.98c1.211-9.3,2.257-17.335,14.356-10.349l5.945,3.432,9.182,5.3,5.945,3.432c12.1,6.986,13.145,16.225,14.356,26.926,1.1,9.714,3.595,37.867,3.62,38.151l-2.438-1.513c-.025-.283-2.468-27.846-3.561-37.5-1.3-11.515-2.356-17.3-11.977-22.851l-5.945-3.432-9.182-5.3-5.945-3.433c-9.621-5.554-10.674-.99-11.977,9.021-1.092,8.393-3.522,33.118-3.547,33.371l-2.452-1.284C89.414,258.7,91.911,233.425,93.009,224.98Z" transform="translate(-29.816 -47.288)"/><path class="cls-3" d="M91.841,260.235,88.2,262.36s.534-17.265,1.189-23.732,3.674-20.982,3.674-20.982l1.442,1.138Z" transform="translate(-29.816 -47.288)"/><path class="cls-3" d="M142.772,294l3.641-2.125s-4.2-31.977-4.92-36.863-3.305-16.383-3.305-16.383l-4.024,1.005s3.018,7.348,3.449,12.3S142.772,294,142.772,294Z" transform="translate(-29.816 -47.288)"/><path class="cls-4" d="M89.369,227.105c1.211-9.3,2.256-17.335,14.355-10.349l5.945,3.432,9.183,5.3,5.944,3.432c12.1,6.986,13.145,16.225,14.356,26.925,1.1,9.715,3.6,37.868,3.62,38.152l-2.437-1.513c-.025-.283-2.469-27.846-3.561-37.5-1.3-11.515-2.356-17.3-11.978-22.851l-5.944-3.432-9.183-5.3-5.945-3.433c-9.62-5.554-10.674-.99-11.977,9.021-1.092,8.393-3.522,33.118-3.547,33.371l-2.451-1.284C85.773,260.821,88.27,235.55,89.369,227.105Z" transform="translate(-29.816 -47.288)"/><path class="cls-3" d="M56.888,245.668c1.211-9.3,2.257-17.334,14.356-10.348l5.945,3.432,9.183,5.3,5.944,3.432c12.1,6.986,13.145,16.226,14.356,26.926,1.1,9.715,3.595,37.868,3.62,38.152l-2.437-1.514c-.026-.282-2.469-27.846-3.561-37.5-1.3-11.515-2.357-17.3-11.978-22.851l-5.944-3.432-9.183-5.3-5.945-3.432c-9.621-5.555-10.674-.99-11.977,9.021-1.092,8.393-3.522,33.118-3.547,33.371l-2.451-1.284C53.293,279.384,55.79,254.114,56.888,245.668Z" transform="translate(-29.816 -47.288)"/><path class="cls-3" d="M55.72,280.924l-3.641,2.125s.534-17.266,1.19-23.733,3.673-20.981,3.673-20.981l1.442,1.138Z" transform="translate(-29.816 -47.288)"/><path class="cls-3" d="M106.652,314.688l3.64-2.125s-4.2-31.978-4.919-36.864-3.306-16.383-3.306-16.383l-4.024,1.006s3.018,7.347,3.449,12.3S106.652,314.688,106.652,314.688Z" transform="translate(-29.816 -47.288)"/><path class="cls-4" d="M53.248,247.793c1.211-9.3,2.256-17.334,14.356-10.348l5.945,3.432,9.182,5.3,5.945,3.432c12.1,6.986,13.145,16.226,14.356,26.926,1.1,9.715,3.595,37.867,3.62,38.152l-2.438-1.514c-.025-.282-2.469-27.846-3.561-37.5-1.3-11.515-2.356-17.3-11.977-22.851l-5.945-3.432-9.182-5.3L67.6,240.657c-9.621-5.555-10.675-.99-11.978,9.021-1.092,8.393-3.521,33.118-3.547,33.371l-2.451-1.284C49.653,281.509,52.149,256.239,53.248,247.793Z" transform="translate(-29.816 -47.288)"/><path class="cls-6" d="M104.857,261.783l45.9-26.288s-35.323-16.43-44.1-23.51S90.765,189.4,89.389,157.691c-.244-5.647.387-14.322-1.189-16.371C84.805,139.385,41.862,166.7,41.862,166.7s2.983,39.018,6.02,50.949,12.04,20.805,26.889,28.985S104.857,261.783,104.857,261.783Z" transform="translate(-29.816 -47.288)"/><path class="cls-5" d="M44,166.6s2.458,30.31,3.919,42.238c1.247,10.174,3.919,21.843,19.935,31.55,13.711,8.312,31.7,18.422,37,21.393v5.423c-3.279-1.834-11.085-6.221-19.782-11.242-5.74-3.315-11.863-6.9-17.308-10.2-18.238-11.054-22.293-25.562-23.853-38.3-1.5-12.253-4-43.227-4-43.227Z" transform="translate(-29.816 -47.288)"/><path class="cls-6" d="M89.9,140.3s2.458,30.323,3.92,42.256c1.247,10.174,3.92,21.843,19.936,31.55l37,21.392v5.424c-3.278-1.835-11.085-6.222-19.782-11.243-5.74-3.314-11.862-6.9-17.308-10.2-18.237-11.053-22.292-25.561-23.852-38.3-1.5-12.2-3.99-43.026-3.99-43.026Z" transform="translate(-29.816 -47.288)"/><polygon class="cls-14" points="56.043 90.549 60.166 93.008 14.216 119.41 10.094 116.951 56.043 90.549"/><polygon class="cls-14" points="120.939 193.631 75.041 219.919 75.041 214.495 120.939 188.208 120.939 193.631"/><path class="cls-7" d="M87,106.342S90.79,92.3,74.85,92.743s-16.781,18.284-12.686,30.471C70.234,147.228,56.52,142,56.52,142s2.848,11.457,12.74,7.681S89.705,108.941,87,106.342Z" transform="translate(-29.816 -47.288)"/><path class="cls-15" d="M85.479,103.523s-4.914-6.325-9.31-3.272-1.99,9.427-1.99,9.427Z" transform="translate(-29.816 -47.288)"/><path class="cls-9" d="M102.533,140.82s16,15.592,20.817,16.387c3.739.617,22.063,3.968,34.454,4.67,3.565.2,7.83-3.87,9.936-5.147,2.359-1.43,3.444-1.809,3.36.214-.064,1.547-3.353,3.717-2.6,3.733.68.015,3.95.138,5.671.2,5.553.2,7.606,1.48,8.9,3.345,3.554,5.124-2.108,9.451-15.762,7.378-1.794-.272-6.417-.858-8.149-.895-7.626-.163-13.786,1.491-20.919,2.014-8.753.642-19.716-1.484-22.635-3.5-5.755-3.97-19.141-12.49-19.141-12.49Z" transform="translate(-29.816 -47.288)"/><path class="cls-8" d="M144.144,219.986s10.732,8.977,9.96,18.46c-.421,5.173.2,7.483-.62,13.915-.774,6.065-1.2,30.273-.848,38.253s5.6,15.161,7.561,17.954-3.6,7.581-8.2,3.591-5.1-4.788-7.64-5.984-4.657-6.784-3-13.167.1-18.753-2.515-29.525c-1.569-6.468-1.4-14.376-1.31-20.355.058-3.98-14.6-16.68-15.149-17.955C121,221.981,144.144,219.986,144.144,219.986Z" transform="translate(-29.816 -47.288)"/><path class="cls-2" d="M148.869,307.4c5.959,3.162,8.371,3.575,11.328,1.167a81.1,81.1,0,0,1,7.541,6.352c1.915,2.111-3.526,5.618-8.941,4.022s-10.034-6.4-14.442-9.975c-4.322-3.5-5.517-4.771-5.517-9.026,0-2.1,2.047-4.4,2.047-4.4S142.623,304.087,148.869,307.4Z" transform="translate(-29.816 -47.288)"/><path class="cls-8" d="M119.789,214.067c2.239,1.017,6.584,10.3,14.962,18.7a15.337,15.337,0,0,1,4.111,13.166A69.977,69.977,0,0,0,137.05,260.3c-.029,6.114-1.2,31.321-.848,39.3s5.6,15.162,7.562,17.955-3.6,7.58-8.2,3.591-5.1-4.788-7.64-5.985-4.657-6.783-3-13.167.1-18.752-2.515-29.525.748-25.267-1.481-27.936c-4.5-5.387-13.909-10.067-14.23-15.528C106.294,222.212,113.073,211.015,119.789,214.067Z" transform="translate(-29.816 -47.288)"/><path class="cls-2" d="M132.435,316.388c5.959,3.162,8.371,3.576,11.329,1.168a81.13,81.13,0,0,1,7.54,6.352c1.915,2.11-3.527,5.617-8.942,4.021s-10.033-6.4-14.441-9.974c-4.323-3.5-5.517-4.771-5.517-9.027,0-2.095,2.047-4.4,2.047-4.4S126.19,313.074,132.435,316.388Z" transform="translate(-29.816 -47.288)"/><path class="cls-2" d="M107.785,195.9s13.468,7.959,17.637,10.846c5.427,3.758,22.432,15.145,22.432,15.145S131.8,229.977,125.9,236.718c-8.21,9.391-14.663,11.073-14.663,11.073s-32.17-11.347-37.106-20.257c-5.985-10.8-1.058-26.6-1.058-26.6C93.962,212.955,107.785,195.9,107.785,195.9Z" transform="translate(-29.816 -47.288)"/><path class="cls-15" d="M98.962,133.658c4.717,2.476,17.575,14.7,17.575,14.7a27.3,27.3,0,0,1-3.887,7.428,73.53,73.53,0,0,1-7.419,6.544L88.063,138.622S94.246,131.183,98.962,133.658Z" transform="translate(-29.816 -47.288)"/><path class="cls-16" d="M75.825,142.544s7.247,5.224,9.8,7.032a62.912,62.912,0,0,1,6.956,6.658l.057-.011a53.291,53.291,0,0,0-3.627-13.529c-.87-2.058,0-8.242,0-8.242s.966-.291,2.368-.611c2.239,2.248,6.716,8.292,9.106,10.769,2.306,2.392,11.171,9.775,9.176,17.954a66.322,66.322,0,0,1-2.493,7.582c-1.262,3.4-.865,9.741-.517,13.175.4,3.946,4.589,14.2,4.589,14.2s-8.569,10.959-18.326,11c-11.389.049-19.838-7.585-19.838-7.585s1.886-17.324,1.176-24.406c0,0-14.062-7.036-11.334-20.681C63.745,151.715,75.825,142.544,75.825,142.544Z" transform="translate(-29.816 -47.288)"/><path class="cls-15" d="M102.393,152.7c-1.794,1.719-8.913,4.5-8.913,4.5l-7.051-19.443,4.932-1.2S102.943,149.47,102.393,152.7Z" transform="translate(-29.816 -47.288)"/><path class="cls-9" d="M80.151,186.269c1.554,4.311,7.934,11.509,10.2,12.836,1.81,1.058,16.479,14.06,20.828,12.621,8.7-2.876,16.558-4.508,19.826-2.6s6.039,5.981-2.384,6.469-12.07,5.862-16.939,5.7c-5.03-.17-18.78-5.605-28.434-12.167A40.92,40.92,0,0,1,70.492,195.47c-2.314-3.8-7.327-15.4-7.327-15.4l12.894-4.3S78.6,181.959,80.151,186.269Z" transform="translate(-29.816 -47.288)"/><path class="cls-8" d="M89.79,135.362s.249,7.032,1.675,10.719c1.117,1.573,2.418,6.637,2.015,11.126-2.369-1.194-6.348-4.99-8.612-6.946-2.74-2.366-8.633-4.238-9.906-6.989a90.737,90.737,0,0,0,2.486-18.84Z" transform="translate(-29.816 -47.288)"/><path class="cls-9" d="M79.4,108.766c4.6-3.507,15.508-4.631,19.488,6.636,4.174,11.815-6.518,26.573-12.216,24.065-3.191-1.4-9.9-6.391-11.789-12.612C72.752,119.854,75.819,111.49,79.4,108.766Z" transform="translate(-29.816 -47.288)"/><path class="cls-15" d="M83.427,145.8c6.131,6.372,10.053,11.4,10.053,11.4s-.731,3.322-8,3.947c-5.887-5.68-12.167-11.095-14.211-14.9.1-1.737,3.744-7.266,3.744-7.266A47.541,47.541,0,0,1,83.427,145.8Z" transform="translate(-29.816 -47.288)"/><path class="cls-2" d="M71.334,111.657c1.26-3.737,6.169-7.174,9.032-8.353,6.6-2.719,10.347-1.418,16.567,4.3,3.74,3.441,5.46,7.5,5.46,13.94,0,0-13.382,4.941-19.084,6.468-3.8,1.017-6.261.285-8.627.285C71.111,124.61,69.26,117.811,71.334,111.657Z" transform="translate(-29.816 -47.288)"/><path class="cls-15" d="M77.843,165.231c1.387,4.867,3.693,11.887,4.531,14.636-.467,7.189-14.753,8.105-19.209,6.278-1.7-3.529-2.673-8.453-3.263-10.383-1.563-5.119-4.672-14.608,4.109-22.108C70.157,148.405,76.565,160.743,77.843,165.231Z" transform="translate(-29.816 -47.288)"/><polygon class="cls-4" points="97.088 113.832 96.087 118.933 104.153 119.498 105.237 114.678 97.088 113.832"/><path class="cls-5" d="M262.614,204.625c1.282,0,2.3-.521,2.409-1.179v9.461a2.409,2.409,0,0,1-4.817,0v-9.461C260.312,204.1,261.332,204.625,262.614,204.625Z" transform="translate(-29.816 -47.288)"/><path class="cls-5" d="M255.508,200.587c1.282,0,2.3-.521,2.408-1.178v9.461a2.409,2.409,0,0,1-4.817,0v-9.461C253.205,200.066,254.226,200.587,255.508,200.587Z" transform="translate(-29.816 -47.288)"/><path class="cls-5" d="M248.816,196.731c1.282,0,2.3-.522,2.409-1.179v9.461a2.409,2.409,0,0,1-4.817,0v-9.461C246.514,196.209,247.534,196.731,248.816,196.731Z" transform="translate(-29.816 -47.288)"/><path class="cls-2" d="M234.326,202.305l9.1-5.274s1.091-3.44-2-3.978a9.673,9.673,0,0,0-6.327.788c-.623.5-1.06.646-1.06,2.689S234.326,202.305,234.326,202.305Z" transform="translate(-29.816 -47.288)"/><path class="cls-2" d="M276.265,215.929l-8.944,5.123s-.094-6.566-.494-7.713-.473-2.33-4-4.337S235.1,193.533,235.1,193.533l8.945-5.11a16.06,16.06,0,0,1,5.243,2.479c2.74,1.934,21.075,12.151,22.672,12.832a7.7,7.7,0,0,1,3.869,4.282C276.156,209.521,276.265,215.929,276.265,215.929Z" transform="translate(-29.816 -47.288)"/><path class="cls-13" d="M235.522,194.05a.979.979,0,0,0-.489.123,1.882,1.882,0,0,0-.707,1.708v6.424l-.583-.332v-6.092a2.409,2.409,0,0,1,1-2.2,1.876,1.876,0,0,1,1.9.124l28.078,15.967a6.1,6.1,0,0,1,2.6,4.875v6.409l-.582-.311v-6.1a5.549,5.549,0,0,0-2.313-4.378L236.348,194.3A1.687,1.687,0,0,0,235.522,194.05Z" transform="translate(-29.816 -47.288)"/><path class="cls-17" d="M262.614,197.189c-1.282,0-2.3.521-2.408,1.178v-7.559a2.409,2.409,0,0,1,4.817,0v7.559C264.917,197.71,263.9,197.189,262.614,197.189Z" transform="translate(-29.816 -47.288)"/><path class="cls-6" d="M262.614,199.754c-1.282,0-2.3-.521-2.408-1.179v-.208c.106-.657,1.126-1.178,2.408-1.178s2.3.521,2.409,1.178v.208C264.917,199.233,263.9,199.754,262.614,199.754Z" transform="translate(-29.816 -47.288)"/><path class="cls-5" d="M262.614,199.754c-1.282,0-2.3-.521-2.408-1.179v4.871c.106.658,1.126,1.179,2.408,1.179s2.3-.521,2.409-1.179v-4.871C264.917,199.233,263.9,199.754,262.614,199.754Z" transform="translate(-29.816 -47.288)"/><path class="cls-4" d="M259.027,190.007c0,1.119,1.591,2.027,3.554,2.027s3.553-.908,3.553-2.027-1.591-2.028-3.553-2.028S259.027,188.887,259.027,190.007Z" transform="translate(-29.816 -47.288)"/><rect class="cls-4" x="229.211" y="141.705" width="7.107" height="1.014"/><path class="cls-18" d="M259.027,188.839c0,1.119,1.591,2.027,3.554,2.027s3.553-.908,3.553-2.027-1.591-2.028-3.553-2.028S259.027,187.719,259.027,188.839Z" transform="translate(-29.816 -47.288)"/><path class="cls-19" d="M260.146,188.724c0,.709,1.1,1.283,2.448,1.283s2.449-.574,2.449-1.283-1.1-1.282-2.449-1.282S260.146,188.016,260.146,188.724Z" transform="translate(-29.816 -47.288)"/><path class="cls-17" d="M255.508,193.151c-1.282,0-2.3.522-2.409,1.179v-7.56a2.409,2.409,0,0,1,4.817,0v7.56C257.81,193.673,256.79,193.151,255.508,193.151Z" transform="translate(-29.816 -47.288)"/><path class="cls-6" d="M255.508,195.717c-1.282,0-2.3-.522-2.409-1.179v-.208c.106-.657,1.127-1.179,2.409-1.179s2.3.522,2.408,1.179v.208C257.81,195.2,256.79,195.717,255.508,195.717Z" transform="translate(-29.816 -47.288)"/><path class="cls-5" d="M255.508,195.717c-1.282,0-2.3-.522-2.409-1.179v4.871c.106.657,1.127,1.178,2.409,1.178s2.3-.521,2.408-1.178v-4.871C257.81,195.2,256.79,195.717,255.508,195.717Z" transform="translate(-29.816 -47.288)"/><path class="cls-4" d="M251.921,185.969c0,1.12,1.591,2.027,3.553,2.027s3.553-.907,3.553-2.027-1.591-2.027-3.553-2.027S251.921,184.85,251.921,185.969Z" transform="translate(-29.816 -47.288)"/><rect class="cls-4" x="222.105" y="137.668" width="7.106" height="1.014"/><path class="cls-18" d="M251.921,184.8c0,1.12,1.591,2.028,3.553,2.028s3.553-.908,3.553-2.028-1.591-2.027-3.553-2.027S251.921,183.682,251.921,184.8Z" transform="translate(-29.816 -47.288)"/><path class="cls-19" d="M253.039,184.687c0,.708,1.1,1.283,2.449,1.283s2.448-.575,2.448-1.283-1.1-1.283-2.448-1.283S253.039,183.978,253.039,184.687Z" transform="translate(-29.816 -47.288)"/><path class="cls-17" d="M248.816,189.294c-1.282,0-2.3.522-2.408,1.179v-7.559a2.409,2.409,0,0,1,4.817,0v7.559C251.119,189.816,250.1,189.294,248.816,189.294Z" transform="translate(-29.816 -47.288)"/><path class="cls-6" d="M248.816,191.86c-1.282,0-2.3-.521-2.408-1.179v-.208c.106-.657,1.126-1.179,2.408-1.179s2.3.522,2.409,1.179v.208C251.119,191.339,250.1,191.86,248.816,191.86Z" transform="translate(-29.816 -47.288)"/><path class="cls-5" d="M248.816,191.86c-1.282,0-2.3-.521-2.408-1.179v4.871c.106.657,1.126,1.179,2.408,1.179s2.3-.522,2.409-1.179v-4.871C251.119,191.339,250.1,191.86,248.816,191.86Z" transform="translate(-29.816 -47.288)"/><path class="cls-4" d="M245.229,182.112c0,1.12,1.591,2.028,3.554,2.028s3.553-.908,3.553-2.028-1.591-2.027-3.553-2.027S245.229,180.993,245.229,182.112Z" transform="translate(-29.816 -47.288)"/><rect class="cls-4" x="215.413" y="133.811" width="7.107" height="1.013"/><path class="cls-18" d="M245.229,180.945c0,1.119,1.591,2.027,3.554,2.027s3.553-.908,3.553-2.027-1.591-2.028-3.553-2.028S245.229,179.825,245.229,180.945Z" transform="translate(-29.816 -47.288)"/><path class="cls-19" d="M246.348,180.83c0,.709,1.1,1.283,2.448,1.283s2.449-.574,2.449-1.283-1.1-1.283-2.449-1.283S246.348,180.122,246.348,180.83Z" transform="translate(-29.816 -47.288)"/><path class="cls-5" d="M249.594,211.95c1.282,0,2.3-.521,2.409-1.178v9.46a2.409,2.409,0,0,1-4.817,0v-9.46C247.292,211.429,248.313,211.95,249.594,211.95Z" transform="translate(-29.816 -47.288)"/><path class="cls-5" d="M242.488,207.913c1.282,0,2.3-.522,2.408-1.179V216.2a2.408,2.408,0,0,1-4.816,0v-9.461C240.185,207.391,241.206,207.913,242.488,207.913Z" transform="translate(-29.816 -47.288)"/><path class="cls-5" d="M235.8,204.056c1.282,0,2.3-.521,2.409-1.178v9.46a2.409,2.409,0,0,1-4.817,0v-9.46C233.494,203.535,234.515,204.056,235.8,204.056Z" transform="translate(-29.816 -47.288)"/><path class="cls-2" d="M221.306,209.63l9.1-5.273s1.092-3.441-2-3.979a9.673,9.673,0,0,0-6.328.789c-.623.5-1.06.645-1.06,2.688S221.306,209.63,221.306,209.63Z" transform="translate(-29.816 -47.288)"/><path class="cls-2" d="M263.245,223.254l-8.944,5.123s-.093-6.566-.493-7.713-.474-2.329-4-4.336-27.725-15.47-27.725-15.47l8.945-5.11a16.051,16.051,0,0,1,5.243,2.48c2.74,1.933,21.075,12.15,22.672,12.831a7.71,7.71,0,0,1,3.87,4.282C263.136,216.846,263.245,223.254,263.245,223.254Z" transform="translate(-29.816 -47.288)"/><path class="cls-13" d="M222.5,201.375a.979.979,0,0,0-.489.123,1.884,1.884,0,0,0-.707,1.708v6.424l-.582-.331v-6.093a2.412,2.412,0,0,1,1-2.2,1.874,1.874,0,0,1,1.9.125L251.7,217.093a6.1,6.1,0,0,1,2.6,4.875v6.409l-.582-.311v-6.1a5.549,5.549,0,0,0-2.313-4.378l-28.078-15.966A1.687,1.687,0,0,0,222.5,201.375Z" transform="translate(-29.816 -47.288)"/><path class="cls-17" d="M249.594,204.514c-1.281,0-2.3.521-2.408,1.179v-7.56a2.409,2.409,0,0,1,4.817,0v7.56C251.9,205.035,250.876,204.514,249.594,204.514Z" transform="translate(-29.816 -47.288)"/><path class="cls-6" d="M249.594,207.079c-1.281,0-2.3-.521-2.408-1.178v-.208c.106-.658,1.127-1.179,2.408-1.179s2.3.521,2.409,1.179v.208C251.9,206.558,250.876,207.079,249.594,207.079Z" transform="translate(-29.816 -47.288)"/><path class="cls-5" d="M249.594,207.079c-1.281,0-2.3-.521-2.408-1.178v4.871c.106.657,1.127,1.178,2.408,1.178s2.3-.521,2.409-1.178V205.9C251.9,206.558,250.876,207.079,249.594,207.079Z" transform="translate(-29.816 -47.288)"/><path class="cls-4" d="M246.008,197.332c0,1.12,1.591,2.027,3.553,2.027s3.553-.907,3.553-2.027-1.591-2.027-3.553-2.027S246.008,196.212,246.008,197.332Z" transform="translate(-29.816 -47.288)"/><rect class="cls-4" x="216.192" y="149.03" width="7.106" height="1.014"/><path class="cls-18" d="M246.008,196.164c0,1.12,1.591,2.027,3.553,2.027s3.553-.907,3.553-2.027-1.591-2.027-3.553-2.027S246.008,195.044,246.008,196.164Z" transform="translate(-29.816 -47.288)"/><path class="cls-19" d="M247.126,196.049c0,.709,1.1,1.283,2.449,1.283s2.448-.574,2.448-1.283-1.1-1.282-2.448-1.282S247.126,195.341,247.126,196.049Z" transform="translate(-29.816 -47.288)"/><path class="cls-17" d="M242.488,200.476c-1.282,0-2.3.522-2.408,1.179V194.1a2.408,2.408,0,0,1,4.816,0v7.559C244.79,201,243.77,200.476,242.488,200.476Z" transform="translate(-29.816 -47.288)"/><path class="cls-6" d="M242.488,203.042c-1.282,0-2.3-.522-2.408-1.179v-.208c.1-.657,1.126-1.179,2.408-1.179s2.3.522,2.408,1.179v.208C244.79,202.52,243.77,203.042,242.488,203.042Z" transform="translate(-29.816 -47.288)"/><path class="cls-5" d="M242.488,203.042c-1.282,0-2.3-.522-2.409-1.179v4.871c.106.657,1.127,1.179,2.409,1.179s2.3-.522,2.408-1.179v-4.871C244.79,202.52,243.77,203.042,242.488,203.042Z" transform="translate(-29.816 -47.288)"/><path class="cls-4" d="M238.9,193.294c0,1.12,1.591,2.028,3.553,2.028s3.554-.908,3.554-2.028-1.591-2.027-3.554-2.027S238.9,192.175,238.9,193.294Z" transform="translate(-29.816 -47.288)"/><rect class="cls-4" x="209.085" y="144.993" width="7.107" height="1.013"/><path class="cls-18" d="M238.9,192.126c0,1.12,1.591,2.028,3.553,2.028s3.554-.908,3.554-2.028-1.591-2.027-3.554-2.027S238.9,191.007,238.9,192.126Z" transform="translate(-29.816 -47.288)"/><path class="cls-19" d="M240.02,192.012c0,.709,1.1,1.283,2.448,1.283s2.448-.574,2.448-1.283-1.1-1.283-2.448-1.283S240.02,191.3,240.02,192.012Z" transform="translate(-29.816 -47.288)"/><path class="cls-17" d="M235.8,196.62c-1.281,0-2.3.521-2.408,1.178v-7.559a2.409,2.409,0,0,1,4.817,0V197.8C238.1,197.141,237.079,196.62,235.8,196.62Z" transform="translate(-29.816 -47.288)"/><path class="cls-6" d="M235.8,199.185c-1.281,0-2.3-.521-2.408-1.179V197.8c.106-.657,1.127-1.178,2.408-1.178s2.3.521,2.409,1.178v.208C238.1,198.664,237.079,199.185,235.8,199.185Z" transform="translate(-29.816 -47.288)"/><path class="cls-5" d="M235.8,199.185c-1.281,0-2.3-.521-2.408-1.179v4.871c.106.658,1.127,1.179,2.408,1.179s2.3-.521,2.409-1.179v-4.871C238.1,198.664,237.078,199.185,235.8,199.185Z" transform="translate(-29.816 -47.288)"/><path class="cls-4" d="M232.209,189.438c0,1.119,1.591,2.027,3.554,2.027s3.553-.908,3.553-2.027-1.591-2.028-3.553-2.028S232.209,188.318,232.209,189.438Z" transform="translate(-29.816 -47.288)"/><rect class="cls-4" x="202.393" y="141.136" width="7.107" height="1.014"/><path class="cls-18" d="M232.209,188.27c0,1.119,1.591,2.027,3.554,2.027s3.553-.908,3.553-2.027-1.591-2.028-3.553-2.028S232.209,187.15,232.209,188.27Z" transform="translate(-29.816 -47.288)"/><path class="cls-19" d="M233.328,188.156c0,.708,1.1,1.282,2.448,1.282s2.449-.574,2.449-1.282-1.1-1.283-2.449-1.283S233.328,187.447,233.328,188.156Z" transform="translate(-29.816 -47.288)"/><path class="cls-9" d="M174.819,102.03s-7.351-7.051-11.9-8.493-9.656-1.6-9.06,5.174,4.733,7.095,7.6,8.607,11.945,4.007,11.945,4.007Z" transform="translate(-29.816 -47.288)"/><path class="cls-11" d="M205.605,120.742s-4.948,8.108-7.488,8.571c-6.255,1.14-16.683-6.657-21.246-10.922-2.794-2.611-8.915-7.667-8.915-7.667,1.841-1.762,2.89-1.686,4.35-7.241a16.257,16.257,0,0,0,.333-4.949S200.467,116.362,205.605,120.742Z" transform="translate(-29.816 -47.288)"/><path class="cls-5" d="M159.545,99.764c1.282,0,2.3-.521,2.408-1.179v9.461a2.409,2.409,0,0,1-4.817,0V98.585C157.242,99.243,158.263,99.764,159.545,99.764Z" transform="translate(-29.816 -47.288)"/><path class="cls-17" d="M159.545,92.327c-1.282,0-2.3.522-2.409,1.179V85.947a2.409,2.409,0,0,1,4.817,0v7.559C161.847,92.849,160.827,92.327,159.545,92.327Z" transform="translate(-29.816 -47.288)"/><path class="cls-6" d="M159.545,94.893c-1.282,0-2.3-.521-2.409-1.179v-.208c.106-.657,1.127-1.179,2.409-1.179s2.3.522,2.408,1.179v.208C161.847,94.372,160.827,94.893,159.545,94.893Z" transform="translate(-29.816 -47.288)"/><path class="cls-5" d="M159.545,94.893c-1.282,0-2.3-.521-2.409-1.179v4.871c.106.658,1.127,1.179,2.409,1.179s2.3-.521,2.408-1.179V93.714C161.847,94.372,160.827,94.893,159.545,94.893Z" transform="translate(-29.816 -47.288)"/><path class="cls-4" d="M155.958,85.146c0,1.12,1.591,2.027,3.553,2.027s3.553-.907,3.553-2.027-1.59-2.028-3.553-2.028S155.958,84.026,155.958,85.146Z" transform="translate(-29.816 -47.288)"/><rect class="cls-4" x="126.142" y="36.844" width="7.106" height="1.014"/><path class="cls-4" d="M155.958,83.978c0,1.119,1.591,2.027,3.553,2.027s3.553-.908,3.553-2.027-1.59-2.028-3.553-2.028S155.958,82.858,155.958,83.978Z" transform="translate(-29.816 -47.288)"/><path class="cls-19" d="M157.076,83.863c0,.709,1.1,1.283,2.449,1.283s2.448-.574,2.448-1.283-1.1-1.282-2.448-1.282S157.076,83.155,157.076,83.863Z" transform="translate(-29.816 -47.288)"/><path class="cls-9" d="M163.064,97.4s-3.812-1.5-4.973-.459c-.9.807-.331,2.1,2.645,3.833,1.705,1,3.932,3.655,5.5,4.159s3.289-3.732,3.289-3.732Z" transform="translate(-29.816 -47.288)"/><path class="cls-17" d="M168.8,179.78a2.649,2.649,0,0,0-3.618-1.939c-.541-1.383-1.742-2.461-3.353-1.557a1.712,1.712,0,0,0-.968,1.574,3.08,3.08,0,0,0-.394.011,3.118,3.118,0,0,0-2.354,1.86c-.7,1.729.347,2.793,1.732,3.241a3.327,3.327,0,1,0,6.488.572A3.055,3.055,0,0,0,168.8,179.78Z" transform="translate(-29.816 -47.288)"/><path class="cls-17" d="M197.692,178.716a2.649,2.649,0,0,0-3.618-1.939c-.541-1.383-1.742-2.46-3.353-1.557a1.712,1.712,0,0,0-.968,1.574,3.075,3.075,0,0,0-.394.011,3.12,3.12,0,0,0-2.354,1.86c-.7,1.729.347,2.793,1.732,3.241a3.327,3.327,0,1,0,6.488.572A3.055,3.055,0,0,0,197.692,178.716Z" transform="translate(-29.816 -47.288)"/><path class="cls-17" d="M175.5,183.146a2.649,2.649,0,0,0-2.322,3.384c-1.435.387-2.637,1.463-1.914,3.163a1.713,1.713,0,0,0,1.459,1.134,2.961,2.961,0,0,0-.033.393,3.122,3.122,0,0,0,1.592,2.544c1.642.887,2.814-.04,3.411-1.368a3.327,3.327,0,1,0,1.277-6.387A3.053,3.053,0,0,0,175.5,183.146Z" transform="translate(-29.816 -47.288)"/><path class="cls-7" d="M372.8,98.512s-1.778-5.871,5.614-9.447c5-2.416,11.168.615,13.96,7.455s3.674,10.808,2.2,16.1-5.592,11.356-4.122,15.471,7.061-.692,7.061-.692.059,7.9-7.061,7.915c-9.134.024-10.278-7.265-12.042-15.935S372.8,98.512,372.8,98.512Z" transform="translate(-29.816 -47.288)"/><path class="cls-8" d="M369.437,297.535c-3.264-.114-6.642-.5-9.964-.673.083,2.017.135,3.774.141,5.062.039,7.547-4.589,14.566-6.313,17.291s3.75,6.99,7.906,3.013,6.936-6,9.282-7.245,2.166-2.845-.117-11.317A29.91,29.91,0,0,1,369.437,297.535Z" transform="translate(-29.816 -47.288)"/><path class="cls-9" d="M399.284,315.006a25.713,25.713,0,0,1-10.172-.4c.008.5.015.983.017,1.394.039,7.547-4.589,14.566-6.313,17.291s3.749,6.989,7.906,3.013,4.59-4.752,6.936-6,5.355-2.83,3.5-8.779C400.906,320.717,399.438,316.01,399.284,315.006Z" transform="translate(-29.816 -47.288)"/><path class="cls-4" d="M357.951,310.355s-3.884,5.535-7.142,9.195c-3.826,4.3-5.456,5.309-6.363,7.66s3.4,8.011,10.865,3.7,8.8-5.524,11.327-7.854c3.279-3.019,6.677-5.028,7.2-9.366a7.29,7.29,0,0,0-2.442-6.1s-.684,2.579-5.162,5.11C362.863,314.605,357.951,310.355,357.951,310.355Z" transform="translate(-29.816 -47.288)"/><path class="cls-10" d="M344.446,327.21s4.949,3.045,5.584,3.331c4.31,1.943,8.427-2.579,12.542-5.388a24.641,24.641,0,0,0,8.226-8.621,19.175,19.175,0,0,1,3.084-4.394s2.461,5.79-1.019,7.9c-4.22,2.559-11.081,7.568-13.037,8.74-1.658.993-9.992,7.249-14.694,2.547C344.043,330.236,343.858,329.17,344.446,327.21Z" transform="translate(-29.816 -47.288)"/><path class="cls-10" d="M355.117,314.223a10.334,10.334,0,0,1,3.779,2.8,35.973,35.973,0,0,1,2.4,3.016l-1.519,1.133s-2.572-2.558-3.771-3.869a14.32,14.32,0,0,0-2.161-1.422Z" transform="translate(-29.816 -47.288)"/><path class="cls-10" d="M352.387,317.7a11.362,11.362,0,0,1,3.864,2.9,14.233,14.233,0,0,1,1.871,2.455l-1.345,1.49s-2.217-2.354-3.416-3.665a19.04,19.04,0,0,0-2.307-1.607Z" transform="translate(-29.816 -47.288)"/><path class="cls-4" d="M387.715,324.288s-3.884,5.535-7.142,9.195c-3.825,4.3-5.455,5.309-6.362,7.66s3.4,8.011,10.865,3.7,8.795-5.524,11.326-7.854c3.279-3.019,6.678-5.028,7.2-9.366a7.293,7.293,0,0,0-2.442-6.1s-.685,2.579-5.162,5.11C392.628,328.538,387.715,324.288,387.715,324.288Z" transform="translate(-29.816 -47.288)"/><path class="cls-10" d="M374.211,341.143s4.948,3.045,5.584,3.331c4.31,1.944,8.427-2.579,12.542-5.388a24.641,24.641,0,0,0,8.226-8.621,19.15,19.15,0,0,1,3.084-4.393s2.461,5.789-1.019,7.9c-4.22,2.56-11.081,7.568-13.037,8.74-1.658.993-9.992,7.249-14.695,2.547C373.808,344.169,373.623,343.1,374.211,341.143Z" transform="translate(-29.816 -47.288)"/><path class="cls-10" d="M384.881,328.156a10.325,10.325,0,0,1,3.779,2.8,35.72,35.72,0,0,1,2.4,3.016l-1.518,1.133s-2.572-2.558-3.772-3.869a14.322,14.322,0,0,0-2.16-1.422Z" transform="translate(-29.816 -47.288)"/><path class="cls-10" d="M382.152,331.63a11.353,11.353,0,0,1,3.863,2.9,14.217,14.217,0,0,1,1.872,2.455l-1.345,1.49s-2.217-2.354-3.417-3.665a18.962,18.962,0,0,0-2.307-1.607Z" transform="translate(-29.816 -47.288)"/><path class="cls-20" d="M358.445,199.921s-2.833,22.025-2.8,31.029c.051,13.269-.718,20.912-.336,26.184s1.076,51.124,1.076,51.124,5.039,3,10.142,3a6.555,6.555,0,0,0,6.379-4.547s1.951-39.064,2.17-49.875c.146-7.2,2.259-30.27,2.259-30.27S379,259.387,380.1,269.184c1.224,10.941,3.87,51.971,3.87,51.971s4.856,3.127,9.8,3.131S405,319.153,405,319.153s-5.01-77.623-4.847-88.2-1.99-31.029-1.99-31.029Z" transform="translate(-29.816 -47.288)"/><path class="cls-20" d="M363.379,130.936c-4.965,2.323-15.68,27.3-18.727,35.391-4.984,13.236-6.857,28.067-7.5,30.517,2.349,1.707,7.97,4.714,10.017,6.133,3.838-7.1,13.033-37.482,13.033-37.482l12.806-34.833S369.072,128.272,363.379,130.936Z" transform="translate(-29.816 -47.288)"/><path class="cls-21" d="M399.12,146.863C398.151,143,386.329,134.9,386.329,134.9s-6.6,5.262-8.926,7.086a59.277,59.277,0,0,0-6.259,6.6l-.055-.007a50.386,50.386,0,0,1,2.8-12.936c.727-1.982-.378-7.777-.378-7.777s-.924-.232-2.262-.47c-2.01,2.225-5.959,8.134-8.1,10.582-2.067,2.363-7.984,9.412-7.837,17.366.311,16.893,0,50.5,0,50.5s12,9.5,23.565,13c15.543,4.7,21.278-8.439,21.278-8.439s-3.434-28.308-3.089-35.024C397.065,175.381,402.321,159.615,399.12,146.863Z" transform="translate(-29.816 -47.288)"/><path class="cls-8" d="M372.82,128.762a68.808,68.808,0,0,1-2.011,8.773c-.982,1.536-3.819,10.608-3.233,14.826,2.181-1.235,8.526-7.814,10.573-9.764,2.477-2.359,9.028-7.051,9.028-7.051s-2.43-2.214-2.43-7.456V114.149Z" transform="translate(-29.816 -47.288)"/><path class="cls-20" d="M370.165,131.1a117.427,117.427,0,0,0-4.455,14.064,32.641,32.641,0,0,0,0,11.8s10.56-8.361,14.014-10.972c4.924-3.723,10.728-8.038,10.728-8.038l-3.275-2.409a66.017,66.017,0,0,0-9.774,6.439c-2.015,1.656-8.847,8.416-8.847,8.416s1.391-5.546,2.74-10.543c1.176-4.356,2.486-10.346,2.486-10.346Z" transform="translate(-29.816 -47.288)"/><polygon class="cls-4" points="353.756 113.339 343.19 108.637 344.365 106.016 354.931 110.717 353.756 113.339"/><path class="cls-9" d="M380.267,102.873c-4.521-3.444-15.231-4.548-19.14,6.517-4.1,11.6,6.4,26.1,12,23.636,3.134-1.379,9.723-6.277,11.578-12.387C386.792,113.763,383.78,105.548,380.267,102.873Z" transform="translate(-29.816 -47.288)"/><path class="cls-2" d="M360.336,111.59s7.249.739,12.527-.8a16.365,16.365,0,0,0,5.7,9.367s2.545-5.2,4.105-4.743c3.085.9,1.237,7.229,1.237,7.229s2.526-3.522,2.848-5.743,4.34-14.145-7.695-19.028C368.333,93.516,360.2,100.128,360.336,111.59Z" transform="translate(-29.816 -47.288)"/><path class="cls-4" d="M381.39,233.857c-3.335,2.372-9.978,7.639-11.367,12.829-1.833,6.858-2.581,14.529-2.581,26.479v12c1.14.582,2.283,1.159,3.421,1.745V273.165c0-11.63.714-19.046,2.466-25.6,1.1-4.116,7.359-9.1,10.722-11.4C383.175,235.382,382.3,234.6,381.39,233.857Z" transform="translate(-29.816 -47.288)"/><path class="cls-4" d="M327.3,202.977c-3.336,2.373-9.976,7.638-11.363,12.827-1.833,6.858-2.582,14.529-2.582,26.479V256.64c1.119.775,2.241,1.534,3.358,2.32l.064.03V242.283c0-11.63.714-19.047,2.465-25.595,1.068-4,7-8.815,10.428-11.2A25.436,25.436,0,0,1,327.3,202.977Z" transform="translate(-29.816 -47.288)"/><path class="cls-5" d="M387.919,235.961l-42.112-24.389c-.038-.022-.081-.021-.119-.04l-19-11.005a2.28,2.28,0,0,0-2.285,3.947l42.112,24.389c.056.032.116.045.173.072l18.948,10.973a2.28,2.28,0,1,0,2.285-3.947Z" transform="translate(-29.816 -47.288)"/><polygon class="cls-4" points="339.155 226.875 284.12 195.257 285.834 192.295 340.869 223.913 339.155 226.875"/><rect class="cls-4" x="337.626" y="233.588" width="3.53" height="76.603"/><path class="cls-2" d="M374.563,355.942c0,3.221-1.959,6.963-4.375,8.358s-4.375-.085-4.375-3.307,1.959-6.964,4.375-8.359S374.563,352.72,374.563,355.942Z" transform="translate(-29.816 -47.288)"/><polygon class="cls-2" points="346.402 306.993 343.026 305.012 337.521 317.248 341.036 319.275 346.402 306.993"/><path class="cls-7" d="M378.1,357.984c0,3.222-1.959,6.964-4.375,8.359s-4.375-.086-4.375-3.307,1.959-6.964,4.375-8.359S378.1,354.762,378.1,357.984Z" transform="translate(-29.816 -47.288)"/><path class="cls-4" d="M376.218,359.238a5.277,5.277,0,0,1-2.2,4.209c-1.217.7-2.2-.043-2.2-1.665a5.274,5.274,0,0,1,2.2-4.209C375.231,356.87,376.218,357.616,376.218,359.238Z" transform="translate(-29.816 -47.288)"/><path class="cls-10" d="M367.691,355.124l4.086,2.355s1.026,2.514,1.547,3.425,2.825-.757,2.8-3.99c.09-1.613.09-3.662.09-3.662l-5.246-3.045A4.848,4.848,0,0,0,367.691,355.124Z" transform="translate(-29.816 -47.288)"/><polygon class="cls-4" points="244.387 274.522 298.861 305.964 337.875 283.417 283.47 251.912 244.387 274.522"/><polygon class="cls-10" points="244.387 274.522 244.387 278.702 298.861 310.191 298.861 305.964 244.387 274.522"/><polygon class="cls-3" points="337.875 283.417 337.875 287.597 298.861 310.191 298.861 305.964 337.875 283.417"/><path class="cls-20" d="M308.384,297.275c-3.7,0-6.7-1.406-6.7-3.14v17.781h.08c.4,1.556,3.195,2.766,6.622,2.766s6.223-1.21,6.623-2.766h.081V294.135C315.088,295.869,312.087,297.275,308.384,297.275Z" transform="translate(-29.816 -47.288)"/><path class="cls-17" d="M308.385,287.426h0a6.722,6.722,0,0,0-6.7,6.7v.006c0-1.735,3-3.141,6.7-3.141s6.7,1.406,6.7,3.141v-.006A6.722,6.722,0,0,0,308.385,287.426Z" transform="translate(-29.816 -47.288)"/><path class="cls-21" d="M308.384,290.994c-3.7,0-6.7,1.406-6.7,3.141s3,3.14,6.7,3.14,6.7-1.406,6.7-3.14S312.087,290.994,308.384,290.994Z" transform="translate(-29.816 -47.288)"/><path class="cls-19" d="M305.352,286.976v1.808c0,.784,1.358,1.421,3.033,1.421s3.033-.637,3.033-1.421v-1.808Z" transform="translate(-29.816 -47.288)"/><path class="cls-5" d="M308.386,285.169h-3.859v1.807c0,1,1.727,1.808,3.858,1.808s3.857-.81,3.857-1.808v-1.807Z" transform="translate(-29.816 -47.288)"/><path class="cls-6" d="M312.242,285.169c0,1-1.727,1.807-3.857,1.807s-3.858-.809-3.858-1.807,1.727-1.808,3.858-1.808S312.242,284.171,312.242,285.169Z" transform="translate(-29.816 -47.288)"/><path class="cls-5" d="M315.146,295.505c0,1.608-2.781,2.911-6.213,2.911l-.856,0-.182,0c-3.432,0-6.213-1.3-6.213-2.911v5.084l0,5.949c0,.03,0,.059,0,.089,0,1.608,2.781,2.911,6.213,2.911l.182,0,.856,0c3.432,0,6.213-1.3,6.213-2.911,0-.03,0-.059,0-.089l0-5.949Z" transform="translate(-29.816 -47.288)"/><path class="cls-20" d="M292.163,306.507c-3.7,0-6.7-1.406-6.7-3.141v17.782h.081c.4,1.556,3.194,2.766,6.622,2.766s6.223-1.21,6.622-2.766h.081V303.366C298.866,305.1,295.865,306.507,292.163,306.507Z" transform="translate(-29.816 -47.288)"/><path class="cls-17" d="M292.163,296.657h0a6.723,6.723,0,0,0-6.7,6.7v0c0-1.734,3-3.14,6.7-3.14s6.7,1.406,6.7,3.14v0A6.723,6.723,0,0,0,292.163,296.657Z" transform="translate(-29.816 -47.288)"/><path class="cls-21" d="M292.163,300.226c-3.7,0-6.7,1.406-6.7,3.14s3,3.141,6.7,3.141,6.7-1.406,6.7-3.141S295.865,300.226,292.163,300.226Z" transform="translate(-29.816 -47.288)"/><path class="cls-19" d="M289.13,296.208v1.807c0,.785,1.358,1.421,3.033,1.421s3.033-.636,3.033-1.421v-1.807Z" transform="translate(-29.816 -47.288)"/><path class="cls-5" d="M292.164,294.4h-3.859v1.808c0,1,1.727,1.807,3.858,1.807s3.858-.809,3.858-1.807V294.4Z" transform="translate(-29.816 -47.288)"/><path class="cls-6" d="M296.021,294.4c0,1-1.727,1.808-3.858,1.808s-3.858-.809-3.858-1.808,1.727-1.807,3.858-1.807S296.021,293.4,296.021,294.4Z" transform="translate(-29.816 -47.288)"/><path class="cls-5" d="M298.925,304.737c0,1.607-2.782,2.911-6.213,2.911l-.857,0c-.06,0-.121,0-.182,0-3.431,0-6.213-1.3-6.213-2.911v5.084l0,5.949c0,.029,0,.059,0,.089,0,1.607,2.782,2.91,6.213,2.91l.182,0,.857,0c3.431,0,6.213-1.3,6.213-2.91,0-.03,0-.06,0-.089l0-5.949Z" transform="translate(-29.816 -47.288)"/><path class="cls-20" d="M327.477,305.791c-3.7,0-6.7-1.407-6.7-3.141v17.782h.081c.4,1.556,3.194,2.765,6.622,2.765s6.223-1.209,6.623-2.765h.08V302.65C334.18,304.384,331.179,305.791,327.477,305.791Z" transform="translate(-29.816 -47.288)"/><path class="cls-17" d="M327.477,295.941h0a6.724,6.724,0,0,0-6.7,6.7v0c0-1.735,3-3.14,6.7-3.14s6.7,1.405,6.7,3.14v0A6.723,6.723,0,0,0,327.477,295.941Z" transform="translate(-29.816 -47.288)"/><path class="cls-21" d="M327.477,299.51c-3.7,0-6.7,1.405-6.7,3.14s3,3.141,6.7,3.141,6.7-1.407,6.7-3.141S331.179,299.51,327.477,299.51Z" transform="translate(-29.816 -47.288)"/><path class="cls-19" d="M324.444,295.492V297.3c0,.785,1.358,1.421,3.033,1.421s3.033-.636,3.033-1.421v-1.807Z" transform="translate(-29.816 -47.288)"/><path class="cls-5" d="M327.479,293.684h-3.86v1.808c0,1,1.728,1.807,3.858,1.807s3.858-.809,3.858-1.807v-1.808Z" transform="translate(-29.816 -47.288)"/><path class="cls-6" d="M331.335,293.684c0,1-1.727,1.808-3.858,1.808s-3.858-.81-3.858-1.808,1.728-1.807,3.858-1.807S331.335,292.686,331.335,293.684Z" transform="translate(-29.816 -47.288)"/><path class="cls-5" d="M334.239,304.02c0,1.608-2.782,2.911-6.213,2.911l-.857,0-.182,0c-3.431,0-6.213-1.3-6.213-2.911v5.085l0,5.948c0,.03,0,.06,0,.089,0,1.608,2.782,2.911,6.213,2.911l.182,0,.857,0c3.431,0,6.213-1.3,6.213-2.911,0-.029,0-.059,0-.089l0-5.948Z" transform="translate(-29.816 -47.288)"/><path class="cls-20" d="M311.255,315.022c-3.7,0-6.7-1.406-6.7-3.141v17.782h.081c.4,1.556,3.194,2.766,6.622,2.766s6.223-1.21,6.623-2.766h.081V311.881C317.959,313.616,314.957,315.022,311.255,315.022Z" transform="translate(-29.816 -47.288)"/><path class="cls-17" d="M311.255,305.172h0a6.724,6.724,0,0,0-6.7,6.7v0c0-1.734,3-3.14,6.7-3.14s6.7,1.406,6.7,3.14v0A6.724,6.724,0,0,0,311.255,305.172Z" transform="translate(-29.816 -47.288)"/><path class="cls-21" d="M311.255,308.741c-3.7,0-6.7,1.406-6.7,3.14s3,3.141,6.7,3.141,6.7-1.406,6.7-3.141S314.957,308.741,311.255,308.741Z" transform="translate(-29.816 -47.288)"/><path class="cls-19" d="M308.222,304.723v1.807c0,.785,1.358,1.421,3.033,1.421s3.033-.636,3.033-1.421v-1.807Z" transform="translate(-29.816 -47.288)"/><path class="cls-5" d="M311.257,302.915H307.4v1.808c0,1,1.727,1.807,3.857,1.807s3.858-.809,3.858-1.807v-1.808Z" transform="translate(-29.816 -47.288)"/><path class="cls-6" d="M315.113,302.915c0,1-1.727,1.808-3.858,1.808s-3.857-.809-3.857-1.808,1.727-1.807,3.857-1.807S315.113,301.917,315.113,302.915Z" transform="translate(-29.816 -47.288)"/><path class="cls-5" d="M318.017,313.252c0,1.607-2.782,2.911-6.213,2.911l-.856,0-.183,0c-3.431,0-6.213-1.3-6.213-2.911v5.084l0,5.949c0,.029,0,.059,0,.089,0,1.607,2.782,2.91,6.213,2.91l.183,0,.856,0c3.431,0,6.213-1.3,6.213-2.91,0-.03,0-.06,0-.089l0-5.949Z" transform="translate(-29.816 -47.288)"/><path class="cls-20" d="M347.593,316.564c-3.7,0-6.7-1.406-6.7-3.141v17.782h.081c.4,1.556,3.194,2.766,6.622,2.766s6.223-1.21,6.623-2.766h.081V313.423C354.3,315.158,351.3,316.564,347.593,316.564Z" transform="translate(-29.816 -47.288)"/><path class="cls-17" d="M347.594,306.714h0a6.724,6.724,0,0,0-6.7,6.7v0c0-1.734,3-3.14,6.7-3.14s6.7,1.406,6.7,3.14v0A6.724,6.724,0,0,0,347.594,306.714Z" transform="translate(-29.816 -47.288)"/><path class="cls-21" d="M347.593,310.283c-3.7,0-6.7,1.406-6.7,3.14s3,3.141,6.7,3.141,6.7-1.406,6.7-3.141S351.3,310.283,347.593,310.283Z" transform="translate(-29.816 -47.288)"/><path class="cls-19" d="M344.56,306.265v1.807c0,.785,1.358,1.421,3.034,1.421s3.032-.636,3.032-1.421v-1.807Z" transform="translate(-29.816 -47.288)"/><path class="cls-5" d="M347.6,304.457h-3.859v1.808c0,1,1.727,1.807,3.858,1.807s3.857-.809,3.857-1.807v-1.808Z" transform="translate(-29.816 -47.288)"/><path class="cls-6" d="M351.451,304.457c0,1-1.727,1.808-3.857,1.808s-3.858-.809-3.858-1.808,1.727-1.807,3.858-1.807S351.451,303.459,351.451,304.457Z" transform="translate(-29.816 -47.288)"/><path class="cls-5" d="M354.355,314.794c0,1.607-2.781,2.911-6.213,2.911l-.856,0-.183,0c-3.431,0-6.213-1.3-6.213-2.911v5.084l0,5.949c0,.029,0,.059,0,.089,0,1.607,2.782,2.91,6.213,2.91l.183,0,.856,0c3.432,0,6.213-1.3,6.213-2.91,0-.03,0-.06,0-.089l0-5.949Z" transform="translate(-29.816 -47.288)"/><path class="cls-20" d="M331.372,325.8c-3.7,0-6.7-1.406-6.7-3.141v17.782h.08c.4,1.556,3.195,2.766,6.623,2.766s6.223-1.21,6.622-2.766h.081V322.654C338.075,324.389,335.074,325.8,331.372,325.8Z" transform="translate(-29.816 -47.288)"/><path class="cls-17" d="M331.372,315.946h0a6.722,6.722,0,0,0-6.7,6.7v0c0-1.734,3-3.14,6.7-3.14s6.7,1.406,6.7,3.14v0A6.722,6.722,0,0,0,331.372,315.946Z" transform="translate(-29.816 -47.288)"/><path class="cls-21" d="M331.372,319.514c-3.7,0-6.7,1.406-6.7,3.14s3,3.141,6.7,3.141,6.7-1.406,6.7-3.141S335.074,319.514,331.372,319.514Z" transform="translate(-29.816 -47.288)"/><path class="cls-19" d="M328.339,315.5V317.3c0,.785,1.358,1.421,3.033,1.421s3.033-.636,3.033-1.421V315.5Z" transform="translate(-29.816 -47.288)"/><path class="cls-5" d="M331.373,313.689h-3.859V315.5c0,1,1.727,1.807,3.858,1.807s3.858-.809,3.858-1.807v-1.807Z" transform="translate(-29.816 -47.288)"/><ellipse class="cls-6" cx="301.556" cy="266.401" rx="3.858" ry="1.807"/><path class="cls-5" d="M338.133,324.025c0,1.608-2.781,2.911-6.212,2.911l-.857,0-.182,0c-3.432,0-6.213-1.3-6.213-2.911v5.084l0,5.949c0,.029,0,.059,0,.089,0,1.607,2.781,2.911,6.213,2.911.061,0,.182,0,.182,0l.857,0c3.431,0,6.212-1.3,6.212-2.911,0-.03,0-.06,0-.089l0-5.949Z" transform="translate(-29.816 -47.288)"/><rect class="cls-4" x="296.886" y="258.012" width="3.53" height="76.603"/><path class="cls-2" d="M333.659,379.308c0,3.221-1.958,6.964-4.374,8.358s-4.375-.085-4.375-3.307,1.959-6.964,4.375-8.358S333.659,376.086,333.659,379.308Z" transform="translate(-29.816 -47.288)"/><polygon class="cls-2" points="305.499 330.36 302.123 328.378 296.618 340.614 300.133 342.641 305.499 330.36"/><path class="cls-7" d="M337.2,381.35c0,3.222-1.959,6.964-4.375,8.359s-4.375-.086-4.375-3.307,1.959-6.964,4.375-8.359S337.2,378.129,337.2,381.35Z" transform="translate(-29.816 -47.288)"/><path class="cls-4" d="M335.315,382.6a5.279,5.279,0,0,1-2.2,4.209c-1.217.7-2.2-.043-2.2-1.665a5.278,5.278,0,0,1,2.2-4.21C334.328,380.236,335.315,380.982,335.315,382.6Z" transform="translate(-29.816 -47.288)"/><path class="cls-10" d="M326.788,378.49l4.086,2.354s1.026,2.514,1.547,3.426,2.825-.757,2.8-3.99c.09-1.613.09-3.662.09-3.662l-5.246-3.045A4.848,4.848,0,0,0,326.788,378.49Z" transform="translate(-29.816 -47.288)"/><rect class="cls-4" x="241.309" y="233.681" width="3.53" height="68.083"/><path class="cls-2" d="M278.083,346.457c0,3.221-1.959,6.963-4.375,8.358s-4.375-.085-4.375-3.307,1.959-6.964,4.375-8.359S278.083,343.235,278.083,346.457Z" transform="translate(-29.816 -47.288)"/><polygon class="cls-2" points="249.922 297.508 246.546 295.527 241.041 307.763 244.557 309.79 249.922 297.508"/><path class="cls-7" d="M281.618,348.5c0,3.222-1.958,6.964-4.375,8.359s-4.374-.086-4.374-3.308,1.958-6.963,4.374-8.358S281.618,345.278,281.618,348.5Z" transform="translate(-29.816 -47.288)"/><path class="cls-4" d="M279.738,349.753a5.276,5.276,0,0,1-2.2,4.209c-1.216.7-2.2-.043-2.2-1.665a5.28,5.28,0,0,1,2.2-4.21C278.752,347.385,279.738,348.131,279.738,349.753Z" transform="translate(-29.816 -47.288)"/><path class="cls-10" d="M271.211,345.639l4.087,2.354s1.026,2.514,1.547,3.426,2.824-.757,2.8-3.99c.089-1.613.089-3.662.089-3.662l-5.246-3.046A4.851,4.851,0,0,0,271.211,345.639Z" transform="translate(-29.816 -47.288)"/><polygon class="cls-4" points="241.106 229.494 298.861 262.83 341.156 238.462 283.271 205.101 241.106 229.494"/><polygon class="cls-10" points="241.106 229.494 241.106 233.681 298.861 267.057 298.861 262.83 241.106 229.494"/><polygon class="cls-3" points="341.156 238.462 341.156 242.642 298.861 267.057 298.861 262.83 341.156 238.462"/><polygon class="cls-18" points="331.301 239.717 299.151 258.297 249.39 229.705 281.536 211.073 331.301 239.717"/><polygon class="cls-13" points="281.382 212.331 326.158 238.204 299.111 253.835 254.211 228.037 281.382 212.331"/><path class="cls-22" d="M311.352,256.048l49.765,28.644-32.15,18.58L279.206,274.68Zm44.622,29.444L311.2,259.619l-27.171,15.706,44.9,25.8Z" transform="translate(-29.816 -47.288)"/><polygon class="cls-7" points="299.151 255.984 299.151 258.297 331.301 239.717 331.301 237.404 299.151 255.984"/><polygon class="cls-13" points="299.151 255.984 299.151 258.297 249.39 229.705 249.39 227.392 299.151 255.984"/><polygon class="cls-7" points="327.774 237.27 326.158 238.204 281.382 212.331 281.382 210.463 327.774 237.27"/><polygon class="cls-7" points="252.591 227.106 281.382 210.463 281.382 212.331 254.211 228.037 252.591 227.106"/><path class="cls-5" d="M334.674,272.627c1.318,0,2.367-.536,2.476-1.212v9.724a2.476,2.476,0,0,1-4.951,0v-9.724C332.308,272.091,333.357,272.627,334.674,272.627Z" transform="translate(-29.816 -47.288)"/><path class="cls-5" d="M327.37,268.477c1.318,0,2.367-.536,2.476-1.212v9.724a2.476,2.476,0,0,1-4.951,0v-9.724C325,267.941,326.053,268.477,327.37,268.477Z" transform="translate(-29.816 -47.288)"/><path class="cls-5" d="M320.493,264.513c1.317,0,2.366-.536,2.475-1.212v9.724a2.476,2.476,0,0,1-4.951,0V263.3C318.126,263.977,319.175,264.513,320.493,264.513Z" transform="translate(-29.816 -47.288)"/><path class="cls-3" d="M305.6,270.242l9.355-5.42s1.122-3.537-2.057-4.089-5.863.294-6.5.81-1.09.663-1.09,2.763S305.6,270.242,305.6,270.242Z" transform="translate(-29.816 -47.288)"/><path class="cls-4" d="M348.705,284.245l-9.193,5.266s-.1-6.749-.507-7.928-.487-2.394-4.115-4.457-28.5-15.9-28.5-15.9l9.193-5.252a16.5,16.5,0,0,1,5.389,2.548c2.817,1.988,21.662,12.489,23.3,13.189a7.92,7.92,0,0,1,3.977,4.4C348.593,277.659,348.705,284.245,348.705,284.245Z" transform="translate(-29.816 -47.288)"/><path class="cls-10" d="M306.829,261.757a1.008,1.008,0,0,0-.5.127,1.935,1.935,0,0,0-.727,1.756v6.6l-.6-.341V263.64a2.479,2.479,0,0,1,1.027-2.266,1.923,1.923,0,0,1,1.949.128l28.859,16.41a6.266,6.266,0,0,1,2.677,5.011v6.588l-.6-.321v-6.267a5.705,5.705,0,0,0-2.378-4.5l-28.859-16.41A1.74,1.74,0,0,0,306.829,261.757Z" transform="translate(-29.816 -47.288)"/><path class="cls-17" d="M334.674,264.983c-1.317,0-2.366.537-2.475,1.212v-7.77a2.476,2.476,0,0,1,4.951,0v7.77C337.041,265.52,335.992,264.983,334.674,264.983Z" transform="translate(-29.816 -47.288)"/><path class="cls-6" d="M334.674,267.62c-1.317,0-2.366-.536-2.475-1.211V266.2c.109-.675,1.158-1.212,2.475-1.212s2.367.537,2.476,1.212v.214C337.041,267.084,335.992,267.62,334.674,267.62Z" transform="translate(-29.816 -47.288)"/><path class="cls-5" d="M334.674,267.62c-1.317,0-2.366-.536-2.475-1.211v5.006c.109.676,1.158,1.212,2.475,1.212s2.367-.536,2.476-1.212v-5.006C337.041,267.084,335.992,267.62,334.674,267.62Z" transform="translate(-29.816 -47.288)"/><ellipse class="cls-4" cx="304.824" cy="210.314" rx="3.652" ry="2.084"/><rect class="cls-4" x="301.172" y="209.272" width="7.304" height="1.042"/><path class="cls-18" d="M330.988,256.4c0,1.151,1.635,2.084,3.652,2.084s3.652-.933,3.652-2.084-1.635-2.084-3.652-2.084S330.988,255.25,330.988,256.4Z" transform="translate(-29.816 -47.288)"/><path class="cls-19" d="M332.137,256.284c0,.728,1.127,1.318,2.517,1.318s2.517-.59,2.517-1.318-1.127-1.319-2.517-1.319S332.137,255.555,332.137,256.284Z" transform="translate(-29.816 -47.288)"/><path class="cls-17" d="M327.37,260.833c-1.317,0-2.366.537-2.475,1.212v-7.77a2.476,2.476,0,0,1,4.951,0v7.77C329.737,261.37,328.688,260.833,327.37,260.833Z" transform="translate(-29.816 -47.288)"/><path class="cls-6" d="M327.37,263.47c-1.317,0-2.366-.536-2.475-1.211v-.214c.109-.675,1.158-1.212,2.475-1.212s2.367.537,2.476,1.212v.214C329.737,262.934,328.688,263.47,327.37,263.47Z" transform="translate(-29.816 -47.288)"/><path class="cls-5" d="M327.37,263.47c-1.317,0-2.366-.536-2.475-1.211v5.006c.109.676,1.158,1.212,2.475,1.212s2.367-.536,2.476-1.212v-5.006C329.737,262.934,328.688,263.47,327.37,263.47Z" transform="translate(-29.816 -47.288)"/><path class="cls-4" d="M323.684,253.452c0,1.151,1.635,2.084,3.652,2.084s3.652-.933,3.652-2.084-1.635-2.084-3.652-2.084S323.684,252.3,323.684,253.452Z" transform="translate(-29.816 -47.288)"/><rect class="cls-4" x="293.868" y="205.122" width="7.304" height="1.042"/><path class="cls-18" d="M323.684,252.251c0,1.151,1.635,2.084,3.652,2.084s3.652-.933,3.652-2.084-1.635-2.083-3.652-2.083S323.684,251.1,323.684,252.251Z" transform="translate(-29.816 -47.288)"/><path class="cls-19" d="M324.833,252.134c0,.728,1.127,1.318,2.517,1.318s2.516-.59,2.516-1.318-1.127-1.318-2.516-1.318S324.833,251.406,324.833,252.134Z" transform="translate(-29.816 -47.288)"/><path class="cls-17" d="M320.493,256.87c-1.318,0-2.367.536-2.476,1.211v-7.77a2.476,2.476,0,0,1,4.951,0v7.77C322.859,257.406,321.81,256.87,320.493,256.87Z" transform="translate(-29.816 -47.288)"/><path class="cls-6" d="M320.493,259.507c-1.318,0-2.367-.537-2.476-1.212v-.214c.109-.675,1.158-1.211,2.476-1.211s2.366.536,2.475,1.211v.214C322.859,258.97,321.81,259.507,320.493,259.507Z" transform="translate(-29.816 -47.288)"/><path class="cls-5" d="M320.493,259.507c-1.318,0-2.367-.537-2.476-1.212V263.3c.109.676,1.158,1.212,2.476,1.212s2.366-.536,2.475-1.212V258.3C322.859,258.97,321.81,259.507,320.493,259.507Z" transform="translate(-29.816 -47.288)"/><path class="cls-4" d="M316.806,249.488c0,1.151,1.635,2.084,3.652,2.084s3.652-.933,3.652-2.084-1.635-2.084-3.652-2.084S316.806,248.337,316.806,249.488Z" transform="translate(-29.816 -47.288)"/><rect class="cls-4" x="286.99" y="201.158" width="7.304" height="1.042"/><path class="cls-18" d="M316.806,248.287c0,1.151,1.635,2.084,3.652,2.084s3.652-.933,3.652-2.084-1.635-2.084-3.652-2.084S316.806,247.137,316.806,248.287Z" transform="translate(-29.816 -47.288)"/><path class="cls-19" d="M317.956,248.17c0,.728,1.126,1.318,2.516,1.318s2.517-.59,2.517-1.318-1.127-1.319-2.517-1.319S317.956,247.442,317.956,248.17Z" transform="translate(-29.816 -47.288)"/><path class="cls-5" d="M321.292,280.156c1.318,0,2.367-.536,2.476-1.212v9.724a2.476,2.476,0,0,1-4.951,0v-9.724C318.926,279.62,319.975,280.156,321.292,280.156Z" transform="translate(-29.816 -47.288)"/><path class="cls-5" d="M313.988,276.006c1.318,0,2.367-.536,2.476-1.212v9.724a2.476,2.476,0,0,1-4.951,0v-9.724C311.622,275.47,312.671,276.006,313.988,276.006Z" transform="translate(-29.816 -47.288)"/><path class="cls-5" d="M307.111,272.042c1.317,0,2.366-.536,2.475-1.211v9.723a2.476,2.476,0,0,1-4.951,0v-9.723C304.744,271.506,305.793,272.042,307.111,272.042Z" transform="translate(-29.816 -47.288)"/><path class="cls-3" d="M292.217,277.771l9.355-5.42s1.122-3.537-2.057-4.089-5.863.3-6.5.81-1.09.663-1.09,2.763S292.217,277.771,292.217,277.771Z" transform="translate(-29.816 -47.288)"/><path class="cls-4" d="M335.323,291.774l-9.193,5.266s-.1-6.749-.507-7.928-.487-2.394-4.115-4.457-28.5-15.9-28.5-15.9l9.193-5.252a16.5,16.5,0,0,1,5.389,2.548c2.817,1.988,21.662,12.489,23.3,13.189a7.919,7.919,0,0,1,3.978,4.4C335.211,285.188,335.323,291.774,335.323,291.774Z" transform="translate(-29.816 -47.288)"/><path class="cls-10" d="M293.447,269.286a1.008,1.008,0,0,0-.5.127,1.935,1.935,0,0,0-.727,1.756v6.6l-.6-.341v-6.261a2.478,2.478,0,0,1,1.026-2.266,1.925,1.925,0,0,1,1.949.128l28.859,16.41a6.266,6.266,0,0,1,2.677,5.011v6.588l-.6-.321v-6.267a5.705,5.705,0,0,0-2.378-4.5L294.3,269.542A1.74,1.74,0,0,0,293.447,269.286Z" transform="translate(-29.816 -47.288)"/><path class="cls-17" d="M321.292,272.512c-1.317,0-2.366.536-2.475,1.212v-7.769a2.476,2.476,0,0,1,4.951,0v7.769C323.659,273.048,322.61,272.512,321.292,272.512Z" transform="translate(-29.816 -47.288)"/><path class="cls-6" d="M321.292,275.149c-1.317,0-2.366-.536-2.475-1.211v-.214c.109-.676,1.158-1.212,2.475-1.212s2.367.536,2.476,1.212v.214C323.659,274.613,322.61,275.149,321.292,275.149Z" transform="translate(-29.816 -47.288)"/><path class="cls-5" d="M321.292,275.149c-1.317,0-2.366-.536-2.475-1.211v5.006c.109.676,1.158,1.212,2.475,1.212s2.367-.536,2.476-1.212v-5.006C323.659,274.613,322.61,275.149,321.292,275.149Z" transform="translate(-29.816 -47.288)"/><ellipse class="cls-4" cx="291.442" cy="217.843" rx="3.652" ry="2.084"/><rect class="cls-4" x="287.79" y="216.801" width="7.304" height="1.042"/><ellipse class="cls-18" cx="291.442" cy="216.642" rx="3.652" ry="2.084"/><path class="cls-19" d="M318.755,263.813c0,.728,1.127,1.318,2.517,1.318s2.516-.59,2.516-1.318-1.126-1.319-2.516-1.319S318.755,263.084,318.755,263.813Z" transform="translate(-29.816 -47.288)"/><path class="cls-17" d="M313.988,268.363c-1.317,0-2.366.536-2.475,1.211v-7.769a2.476,2.476,0,0,1,4.951,0v7.769C316.355,268.9,315.306,268.363,313.988,268.363Z" transform="translate(-29.816 -47.288)"/><path class="cls-6" d="M313.988,271c-1.317,0-2.366-.536-2.475-1.211v-.214c.109-.675,1.158-1.211,2.475-1.211s2.367.536,2.476,1.211v.214C316.355,270.463,315.306,271,313.988,271Z" transform="translate(-29.816 -47.288)"/><path class="cls-5" d="M313.988,271c-1.318,0-2.366-.536-2.475-1.211v5.006c.109.676,1.157,1.212,2.475,1.212s2.367-.536,2.476-1.212v-5.006C316.355,270.463,315.306,271,313.988,271Z" transform="translate(-29.816 -47.288)"/><path class="cls-4" d="M310.3,260.981c0,1.151,1.635,2.083,3.652,2.083s3.652-.932,3.652-2.083-1.635-2.084-3.652-2.084S310.3,259.83,310.3,260.981Z" transform="translate(-29.816 -47.288)"/><rect class="cls-4" x="280.486" y="212.651" width="7.304" height="1.042"/><path class="cls-18" d="M310.3,259.78c0,1.151,1.635,2.084,3.652,2.084s3.652-.933,3.652-2.084-1.635-2.084-3.652-2.084S310.3,258.63,310.3,259.78Z" transform="translate(-29.816 -47.288)"/><path class="cls-19" d="M311.451,259.663c0,.728,1.127,1.318,2.517,1.318s2.516-.59,2.516-1.318-1.126-1.318-2.516-1.318S311.451,258.935,311.451,259.663Z" transform="translate(-29.816 -47.288)"/><path class="cls-17" d="M307.111,264.4c-1.318,0-2.367.536-2.476,1.211v-7.77a2.476,2.476,0,0,1,4.951,0v7.77C309.477,264.935,308.428,264.4,307.111,264.4Z" transform="translate(-29.816 -47.288)"/><path class="cls-6" d="M307.111,267.036c-1.318,0-2.367-.537-2.476-1.212v-.214c.109-.675,1.158-1.211,2.476-1.211s2.366.536,2.475,1.211v.214C309.477,266.5,308.428,267.036,307.111,267.036Z" transform="translate(-29.816 -47.288)"/><path class="cls-5" d="M307.111,267.036c-1.318,0-2.367-.537-2.476-1.212v5.006c.109.676,1.158,1.212,2.476,1.212s2.366-.536,2.475-1.212v-5.006C309.477,266.5,308.428,267.036,307.111,267.036Z" transform="translate(-29.816 -47.288)"/><ellipse class="cls-4" cx="277.26" cy="209.729" rx="3.652" ry="2.084"/><rect class="cls-4" x="273.608" y="208.687" width="7.304" height="1.042"/><ellipse class="cls-18" cx="277.26" cy="208.529" rx="3.652" ry="2.084"/><ellipse class="cls-19" cx="277.274" cy="208.411" rx="2.517" ry="1.318"/><path class="cls-9" d="M392.347,182.18s-6.682,14.047-9.447,17.964-13.788,14.172-16.1,15.472a15.632,15.632,0,0,1-5.836,1.477c-1.989.02-4.06-.645-5.475-.422-.361,1.9,4.631,3.305,4.631,3.305s-2.455,2.049-2.719,4.5c-.167,1.562,3.063,4.186,6.719,6.153,2.56,1.377,6.776-1.563,8.025-3.621,1.449-2.388.742-3.648,2.976-5.72,4.431-4.109,13.592-9.979,15.832-12.877,3.155-4.083,13.778-18.761,13.778-18.761S401.061,180.332,392.347,182.18Z" transform="translate(-29.816 -47.288)"/><path class="cls-20" d="M404.4,152.361c-2.728-7.85-6.3-9.7-9.391-11.021-2.262-.967-6.441,4.13-7.832,8.207-1.942,5.693.508,30.432,1.117,34.263-5.7,8.846-21.68,29.537-21.68,29.537S370.94,216.4,374,218.4a40.138,40.138,0,0,0,6.108,3.2s8.955-4.178,22.446-24.946a32.615,32.615,0,0,0,4.907-16.316C407.668,171.54,406.319,157.883,404.4,152.361Z" transform="translate(-29.816 -47.288)"/><path class="cls-9" d="M345.072,201.663c-1.139-.586-4.534-3.154-6.343-3.657-.274.476-.509.866-.655,1.066-1.5,2.063-2.837,2.29-5.479,5.818s-1.232,5.764.469,7.474,3.711,2.846,4.969,2.882c2.906.082,2.849-.868,2.849-.868a2.419,2.419,0,0,1-.178-3.387c.961-1.2,3.884-.851,3.884-.851s-.174-3.559-.18-5.437A6.659,6.659,0,0,1,345.072,201.663Z" transform="translate(-29.816 -47.288)"/></svg>